<svg width="35" height="36" viewBox="0 0 35 36" fill="none" xmlns="http://www.w3.org/2000/svg">
<rect y="0.5" width="35" height="35" rx="11.25" fill="#0055FF" fill-opacity="0.8"/>
<path fill-rule="evenodd" clip-rule="evenodd" d="M15.25 20.25L24.25 11.25L26.5 13.5L17.5 22.5L15.25 20.25ZM13 22.5L15.25 20.25L10.75 15.75L8.5 18L13 22.5Z" fill="white"/>
<path fill-rule="evenodd" clip-rule="evenodd" d="M15.25 20.25L24.25 11.25L26.5 13.5L17.5 22.5L15.25 20.25ZM13 22.5L15.25 20.25L10.75 15.75L8.5 18L13 22.5Z" fill="#0055FF" fill-opacity="0.1"/>
<path d="M13 22.5L15.25 24.75L17.5 22.5L15.25 20.25L13 22.5Z" fill="white"/>
<path d="M13 22.5L15.25 24.75L17.5 22.5L15.25 20.25L13 22.5Z" fill="#0055FF" fill-opacity="0.1"/>
</svg>
